<svg xmlns="http://www.w3.org/2000/svg" viewBox="0 0 512 512">
  <path fill="#fbbf24" d="M256 159c-53 0-96 43-96 96s43 96 96 96 96-43 96-96-43-96-96-96zm0 160c-35.3 0-64-28.7-64-64s28.7-64 64-64 64 28.7 64 64-28.7 64-64 64z"/>
  <path fill="#f59e0b" d="M363.5 107.5c-5.5-5.5-14.3-5.5-19.8 0l-28.4 28.4c-8.8-5.5-18.4-10-28.7-13.3-2.7-44-39-79-83.6-79s-80.9 35-83.6 79c-10.3 3.3-19.9 7.8-28.7 13.3L62.3 107.5c-5.5-5.5-14.3-5.5-19.8 0s-5.5 14.3 0 19.8l28.4 28.4c-5.5 8.8-10 18.4-13.3 28.7-44 2.7-79 39-79 83.6s35 80.9 79 83.6c3.3 10.3 7.8 19.9 13.3 28.7L42.5 408.7c-5.5 5.5-5.5 14.3 0 19.8s14.3 5.5 19.8 0l28.4-28.4c8.8 5.5 18.4 10 28.7 13.3 2.7 44 39 79 83.6 79s80.9-35 83.6-79c10.3-3.3 19.9-7.8 28.7-13.3l28.4 28.4c5.5 5.5 14.3 5.5 19.8 0s5.5-14.3 0-19.8l-28.4-28.4c5.5-8.8 10-18.4 13.3-28.7 44-2.7 79-39 79-83.6s-35-80.9-79-83.6c-3.3-10.3-7.8-19.9-13.3-28.7l28.4-28.4c5.5-5.5 5.5-14.3 0-19.8zm-91.8 239.2c-4.8 11.3-11.7 21.3-20.7 30.3-9 9-19 15.9-30.3 20.7-11.8 4.9-24.2 7.3-37.1 7.3s-25.2-2.4-37.1-7.3c-11.3-4.8-21.3-11.7-30.3-20.7-9-9-15.9-19-20.7-30.3-4.9-11.8-7.3-24.2-7.3-37.1s2.4-25.2 7.3-37.1c4.8-11.3 11.7-21.3 20.7-30.3 9-9 19-15.9 30.3-20.7 11.8-4.9 24.2-7.3 37.1-7.3s25.2 2.4 37.1 7.3c11.3 4.8 21.3 11.7 30.3 20.7 9 9 15.9 19 20.7 30.3 4.9 11.8 7.3 24.2 7.3 37.1s-2.4 25.3-7.3 37.1z"/>
  <path fill="#4d4d4d" d="M363.5 107.5l-28.4 28.4c8.8 11.1 15.8 23.7 20.7 37.3 39.5 6.5 69.5 41 69.5 82.2s-30.1 75.7-69.5 82.2c-4.9 13.6-11.9 26.2-20.7 37.3l28.4 28.4c5.4 5.4 14.2 5.4 19.6 0 5.4-5.4 5.4-14.2 0-19.6l-17.5-17.5c20-27.1 31.7-60.5 31.7-96.6 0-36.1-11.8-69.6-31.7-96.6l17.5-17.5c5.4-5.4 5.4-14.2 0-19.6s-14.2-5.4-19.6 0z"/>
  <path fill="#1e1e1e" d="M256 143c-61.9 0-112 50.1-112 112s50.1 112 112 112 112-50.1 112-112-50.1-112-112-112zm0 192c-44.1 0-80-35.9-80-80s35.9-80 80-80 80 35.9 80 80-35.9 80-80 80z"/>
  <path fill="#fbbf24" d="M160 100c0-8.8 7.2-16 16-16s16 7.2 16 16-7.2 16-16 16-16-7.2-16-16zM320 100c0-8.8 7.2-16 16-16s16 7.2 16 16-7.2 16-16 16-16-7.2-16-16z"/>
  <path fill="#000" d="M176 84c-8.8 0-16 7.2-16 16s7.2 16 16 16 16-7.2 16-16-7.2-16-16-16zm160 0c-8.8 0-16 7.2-16 16s7.2 16 16 16 16-7.2 16-16-7.2-16-16-16z"/>
  <path fill="#fbbf24" d="M352 192h-32c-8.8 0-16 7.2-16 16s7.2 16 16 16h32c8.8 0 16-7.2 16-16s-7.2-16-16-16zM192 192h-32c-8.8 0-16 7.2-16 16s7.2 16 16 16h32c8.8 0 16-7.2 16-16s-7.2-16-16-16z"/>
  <path fill="#4d4d4d" d="M148.5 107.5l28.4 28.4c-8.8 11.1-15.8 23.7-20.7 37.3-39.5 6.5-69.5 41-69.5 82.2s30.1 75.7 69.5 82.2c4.9 13.6 11.9 26.2 20.7 37.3l-28.4 28.4c-5.4 5.4-14.2 5.4-19.6 0-5.4-5.4-5.4-14.2 0-19.6l17.5-17.5C126.5 338.1 114.7 304.6 114.7 268.5c0-36.1 11.8-69.6 31.7-96.6l-17.5-17.5c-5.4-5.4-5.4-14.2 0-19.6s14.2-5.4 19.6 0z"/>
</svg>
